:FULLY-SPECIFIED
:FORCE-ALL-JOINTS-BE-3DOF
:DEGREES
408
root 4.43943 16.2444 -11.3549 3.85408 -35.8574 -4.50997
lfemur -28.5704 2.81029 -6.27068
ltibia 42.6588 0 0
lfoot -10.843 14.2514 0
ltoes -1.15994 0 0
rfemur -32.7103 -15.3022 21.804
rtibia 69.3048 0 0
rfoot 4.51024 -0.774283 0
rtoes 26.5785 0 0
lowerback 4.95989 4.0609 1.39077
upperback 1.72816 5.44852 -1.36363
thorax -0.737838 2.72464 -2.45153
lowerneck -6.1998 2.29216 7.73112
upperneck 4.11905 2.37821 0.238868
head 2.54398 1.31123 -1.17513
lclavicle -3.50228e-14 3.64419e-15 0
lhumerus -44.7426 -19.0993 94.3871
lradius 50.1042 0 0
lwrist 17.3176 0 0
lhand -16.5498 3.17352 0
lfingers 7.12502 0 0
lthumb 9.66907 32.9137 0
rclavicle -3.50228e-14 3.64419e-15 0
rhumerus -45.5876 9.42179 -91.3551
rradius 63.2588 0 0
rwrist 9.34285 0 0
rhand -21.8648 -18.165 0
rfingers 7.12502 0 0
rthumb 4.53864 -768.045 0
409
root 4.37862 16.2241 -11.2573 3.69298 -36.1171 -4.42717
lfemur -28.1965 3.22988 -6.30634
ltibia 43.4381 0 0
lfoot -11.5931 13.9396 0
ltoes -1.26728 0 0
rfemur -33.9484 -14.771 20.9148
rtibia 68.6087 0 0
rfoot 4.88684 -0.592747 0
rtoes 26.1014 0 0
lowerback 5.12582 3.98669 1.44622
upperback 1.76268 5.35325 -1.38984
thorax -0.792662 2.67664 -2.51522
lowerneck -6.21261 2.51711 7.91212
upperneck 4.17477 2.67679 -0.0572186
head 2.58983 1.4555 -1.29146
lclavicle -3.77638e-14 6.75983e-15 0
lhumerus -44.739 -19.1041 94.4508
lradius 49.8752 0 0
lwrist 17.0802 0 0
lhand -16.9498 2.91223 0
lfingers 7.12502 0 0
lthumb 9.28303 32.6675 0
rclavicle -3.77638e-14 6.75983e-15 0
rhumerus -45.6279 9.14251 -91.0998
rradius 63.7919 0 0
rwrist 9.55352 0 0
rhand -22.5184 -18.2282 0
rfingers 7.12502 0 0
rthumb 3.90751 -768.117 0
410
root 4.3178 16.2037 -11.1598 3.53821 -36.3323 -4.35239
lfemur -27.8535 3.69094 -6.34644
ltibia 44.259 0 0
lfoot -12.3623 13.5894 0
ltoes -1.36392 0 0
rfemur -35.1782 -14.2012 20.0146
rtibia 67.8371 0 0
rfoot 5.2186 -0.415107 0
rtoes 25.5515 0 0
lowerback 5.29545 3.90719 1.50829
upperback 1.79838 5.25135 -1.41202
thorax -0.848496 2.62534 -2.57835
lowerneck -6.22794 2.73998 8.08915
upperneck 4.22308 2.97316 -0.356368
head 2.63377 1.59838 -1.40815
lclavicle -4.04491e-14 9.92094e-15 0
lhumerus -44.7248 -19.1204 94.5164
lradius 49.6516 0 0
lwrist 16.8321 0 0
lhand -17.3673 2.64162 0
lfingers 7.12502 0 0
lthumb 8.88014 32.4127 0
rclavicle -4.04491e-14 9.92094e-15 0
rhumerus -45.6604 8.85697 -90.8427
rradius 64.329 0 0
rwrist 9.77165 0 0
rhand -23.1746 -18.3004 0
rfingers 7.12502 0 0
rthumb 3.27383 -768.198 0
411
root 4.25699 16.1833 -11.0623 3.39099 -36.4945 -4.28817
lfemur -27.5462 4.18534 -6.38615
ltibia 45.1112 0 0
lfoot -13.1429 13.2034 0
ltoes -1.45466 0 0
rfemur -36.3805 -13.6026 19.1115
rtibia 67.0024 0 0
rfoot 5.50316 -0.247294 0
rtoes 24.9221 0 0
lowerback 5.46649 3.82346 1.57607
upperback 1.83437 5.14418 -1.42985
thorax -0.905001 2.57139 -2.64003
lowerneck -6.24551 2.95776 8.26012
upperneck 4.2636 3.26328 -0.65457
head 2.67525 1.73795 -1.52369
lclavicle -4.3035e-14 1.30831e-14 0
lhumerus -44.7003 -19.1492 94.5837
lradius 49.4364 0 0
lwrist 16.5751 0 0
lhand -17.7953 2.36501 0
lfingers 7.12502 0 0
lthumb 8.46701 32.1523 0
rclavicle -4.3035e-14 1.30831e-14 0
rhumerus -45.6871 8.56553 -90.5866
rradius 64.8642 0 0
rwrist 9.99456 0 0
rhand -23.8284 -18.383 0
rfingers 7.12502 0 0
rthumb 2.64249 -768.289 0
412
root 4.19617 16.1629 -10.9648 3.25256 -36.5952 -4.23704
lfemur -27.2793 4.70497 -6.42067
ltibia 45.9847 0 0
lfoot -13.9273 12.7843 0
ltoes -1.5443 0 0
rfemur -37.5363 -12.9847 18.2136
rtibia 66.1169 0 0
rfoot 5.73818 -0.0952415 0
rtoes 24.2066 0 0
lowerback 5.63665 3.73653 1.64869
upperback 1.86977 5.03312 -1.44302
thorax -0.961841 2.51549 -2.69935
lowerneck -6.26498 3.16743 8.42296
upperneck 4.29591 3.54308 -0.947816
head 2.71372 1.87224 -1.63657
lclavicle -4.54782e-14 1.62018e-14 0
lhumerus -44.6659 -19.1914 94.653
lradius 49.2327 0 0
lwrist 16.3106 0 0
lhand -18.2272 2.08573 0
lfingers 7.12502 0 0
lthumb 8.05027 31.8894 0
rclavicle -4.54782e-14 1.62018e-14 0
rhumerus -45.7099 8.26856 -90.3343
rradius 65.3913 0 0
rwrist 10.2196 0 0
rhand -24.4747 -18.4773 0
rfingers 7.12502 0 0
rthumb 2.01837 -768.392 0
413
root 4.13536 16.1426 -10.8672 3.12415 -36.6259 -4.20154
lfemur -27.0573 5.24169 -6.44517
ltibia 46.8691 0 0
lfoot -14.708 12.3346 0
ltoes -1.63766 0 0
rfemur -38.6266 -12.3571 17.3291
rtibia 65.1926 0 0
rfoot 5.92133 0.0351202 0
rtoes 23.3982 0 0
lowerback 5.80363 3.64746 1.72523
upperback 1.90371 4.91951 -1.4512
thorax -1.01868 2.45829 -2.75542
lowerneck -6.28607 3.36596 8.57557
upperneck 4.31961 3.80854 -1.2321
head 2.74862 1.99932 -1.74528
lclavicle -4.77351e-14 1.92327e-14 0
lhumerus -44.6219 -19.2479 94.7241
lradius 49.0435 0 0
lwrist 16.0403 0 0
lhand -18.6559 1.8071 0
lfingers 7.12502 0 0
lthumb 7.63652 31.627 0
rclavicle -4.77351e-14 1.92327e-14 0
rhumerus -45.7308 7.96643 -90.0886
rradius 65.9046 0 0
rwrist 10.444 0 0
rhand -25.1084 -18.5845 0
rfingers 7.12502 0 0
rthumb 1.40635 -768.506 0
414
root 4.07454 16.1222 -10.7697 3.00698 -36.5783 -4.1842
lfemur -26.8852 5.7874 -6.45486
ltibia 47.7544 0 0
lfoot -15.4772 11.8571 0
ltoes -1.73953 0 0
rfemur -39.6323 -11.7294 16.466
rtibia 64.242 0 0
rfoot 6.05024 0.137858 0
rtoes 22.4904 0 0
lowerback 5.96513 3.55728 1.80482
upperback 1.9353 4.80473 -1.45408
thorax -1.07518 2.40048 -2.80734
lowerneck -6.30844 3.55035 8.71588
upperneck 4.33428 4.05559 -1.5034
head 2.77938 2.11725 -1.84829
lclavicle -4.97624e-14 2.21314e-14 0
lhumerus -44.5685 -19.3197 94.7971
lradius 48.8718 0 0
lwrist 15.7659 0 0
lhand -19.0746 1.53244 0
lfingers 7.12502 0 0
lthumb 7.23239 31.3682 0
rclavicle -4.97624e-14 2.21314e-14 0
rhumerus -45.7519 7.6595 -89.8522
rradius 66.3979 0 0
rwrist 10.6651 0 0
rhand -25.7246 -18.7059 0
rfingers 7.12502 0 0
rthumb 0.81131 -768.635 0
415
root 4.01372 16.1018 -10.6722 2.9023 -36.4437 -4.18757
lfemur -26.7675 6.33396 -6.44491
ltibia 48.6303 0 0
lfoot -16.2275 11.3543 0
ltoes -1.85473 0 0
rfemur -40.5344 -11.1112 15.6325
rtibia 63.2773 0 0
rfoot 6.12258 0.207042 0
rtoes 21.4764 0 0
lowerback 6.11886 3.46704 1.88655
upperback 1.96367 4.69013 -1.45135
thorax -1.131 2.34272 -2.85421
lowerneck -6.3318 3.71758 8.84181
upperneck 4.33953 4.2802 -1.75772
head 2.80545 2.22408 -1.9441
lclavicle -5.15165e-14 2.48533e-14 0
lhumerus -44.5063 -19.4077 94.872
lradius 48.7207 0 0
lwrist 15.4887 0 0
lhand -19.4766 1.26509 0
lfingers 7.12502 0 0
lthumb 6.84448 31.1161 0
rclavicle -5.15165e-14 2.48533e-14 0
rhumerus -45.7752 7.34814 -89.6279
rradius 66.8654 0 0
rwrist 10.8802 0 0
rhand -26.3181 -18.8427 0
rfingers 7.12502 0 0
rthumb 0.238132 -768.778 0
416
root 3.95291 16.0815 -10.5746 2.81134 -36.2139 -4.21417
lfemur -26.709 6.87327 -6.41051
ltibia 49.4866 0 0
lfoot -16.9512 10.8288 0
ltoes -1.98806 0 0
rfemur -41.3138 -10.5121 14.8367
rtibia 62.3106 0 0
rfoot 6.136 0.236737 0
rtoes 20.3497 0 0
lowerback 6.26251 3.3778 1.96954
upperback 1.98794 4.57709 -1.44269
thorax -1.1858 2.2857 -2.89513
lowerneck -6.35584 3.86462 8.95127
upperneck 4.33494 4.47832 -1.99105
head 2.82627 2.31786 -2.03119
lclavicle -5.29539e-14 2.73541e-14 0
lhumerus -44.4354 -19.5128 94.9488
lradius 48.5932 0 0
lwrist 15.2106 0 0
lhand -19.8549 1.00836 0
lfingers 7.12502 0 0
lthumb 6.47943 30.8738 0
rclavicle -5.29539e-14 2.73541e-14 0
rhumerus -45.8026 7.03272 -89.4185
rradius 67.3011 0 0
rwrist 11.0867 0 0
rhand -26.8839 -18.9964 0
rfingers 7.12502 0 0
rthumb -0.308304 -768.938 0
417
root 3.89209 16.0611 -10.4771 2.73531 -35.8802 -4.26655
lfemur -26.7144 7.39719 -6.34685
ltibia 50.3131 0 0
lfoot -17.6407 10.2834 0
ltoes -2.14431 0 0
rfemur -41.9517 -9.94168 14.0867
rtibia 61.3543 0 0
rfoot 6.08815 0.221014 0
rtoes 19.1035 0 0
lowerback 6.39381 3.29058 2.05289
upperback 2.00722 4.46695 -1.42777
thorax -1.23926 2.23008 -2.92919
lowerneck -6.38023 3.98846 9.04218
upperneck 4.32012 4.64589 -2.19937
head 2.84129 2.39665 -2.10805
lclavicle -5.40313e-14 2.95894e-14 0
lhumerus -44.3562 -19.6359 95.0275
lradius 48.4923 0 0
lwrist 14.933 0 0
lhand -20.2026 0.765586 0
lfingers 7.12502 0 0
lthumb 6.14383 30.6442 0
rclavicle -5.40313e-14 2.95894e-14 0
rhumerus -45.8362 6.71361 -89.2267
rradius 67.6991 0 0
rwrist 11.2818 0 0
rhand -27.417 -19.168 0
rfingers 7.12502 0 0
rthumb -0.823118 -769.116 0
418
root 3.83128 16.0407 -10.3796 2.67547 -35.4342 -4.34724
lfemur -26.7884 7.8976 -6.24912
ltibia 51.0997 0 0
lfoot -18.2883 9.72072 0
ltoes -2.32831 0 0
rfemur -42.4288 -9.40952 13.3906
rtibia 60.4206 0 0
rfoot 5.9767 0.15394 0
rtoes 17.7312 0 0
lowerback 6.51044 3.20644 2.13571
upperback 2.02065 4.36108 -1.40629
thorax -1.29102 2.17653 -2.95551
lowerneck -6.40469 4.08609 9.11245
upperneck 4.29465 4.77889 -2.37868
head 2.84994 2.45851 -2.17316
lclavicle -5.47051e-14 3.15146e-14 0
lhumerus -44.2691 -19.7781 95.1082
lradius 48.4212 0 0
lwrist 14.6576 0 0
lhand -20.513 0.540087 0
lfingers 7.12502 0 0
lthumb 5.84432 30.4306 0
rclavicle -5.47051e-14 3.15146e-14 0
rhumerus -45.8779 6.39117 -89.0554
rradius 68.0532 0 0
rwrist 11.4629 0 0
rhand -27.9123 -19.359 0
rfingers 7.12502 0 0
rthumb -1.30143 -769.312 0
